<svg xmlns="http://www.w3.org/2000/svg" viewBox="0 0 1282.78 404.58"><defs><style>.cls-1{fill:#010101;}.cls-2{fill:#1d1d1b;}</style></defs><g id="Livello_2" data-name="Livello 2"><g id="Livello_1-2" data-name="Livello 1"><g id="MSL"><g id="layer1"><path id="path1" class="cls-1" d="M802.82,150.51a12.58,12.58,0,0,1-2.31-24.2l1-.36,0-9.79.05-9.78.47-.47c.47-.47.49-.47,3.11-.53l2.64,0V101h-2.18a24.9,24.9,0,0,1-3.36-.19,18.55,18.55,0,0,1-9.07-4.58,2.06,2.06,0,0,1-.81-1.89,23.86,23.86,0,0,1,3-3.33l2.88-2.9,0-5.41.05-5.4.47-.47.48-.48,5.4,0,5.41,0,3-3c2.82-2.8,3-3,3.64-3s.77.12,1.61,1a17.71,17.71,0,0,1,4.27,16,18.93,18.93,0,0,1-1.86,4.81l-.48.79,3.14,6.24,3.14,6.24h7.66V84.6l-2.69-.06c-2.27-.06-2.8-.13-3.47-.43a5.92,5.92,0,0,1-2.59-2.58c-.36-.77-.37-1-.37-7.53s0-6.75.37-7.52a5.9,5.9,0,0,1,2.59-2.59c.77-.36,1-.37,10.75-.41,6.64,0,10.24,0,10.81.13a5.17,5.17,0,0,1,3.78,3.63,89.86,89.86,0,0,1,0,13.53,5.31,5.31,0,0,1-3.7,3.62,21.08,21.08,0,0,1-3.06.18h-2.2v2.19a13.35,13.35,0,0,1-.19,2.71,1.64,1.64,0,0,1-3,.09,11.43,11.43,0,0,1-.19-2.68V84.57h-3.41v20.78H841v-4.93l.49-.56a1.56,1.56,0,0,1,2.36-.08c.47.46.47.5.53,3l.05,2.55h14.12V87.06l4.66-4.7c4.61-4.64,4.68-4.72,5.74-6.65a15.88,15.88,0,0,1,1.64-2.52l.55-.57,3.67,0,3.67.06.46.46a1.58,1.58,0,0,1,0,2.3c-.46.47-.47.47-3.4.56l-2.93.08-.76,1.35-.76,1.35.76,1.41.75,1.41,2.94,0,2.94.06.46.46a1.56,1.56,0,0,1-.08,2.36l-.55.5h-3.49a20.44,20.44,0,0,1-3.89-.19,5.67,5.67,0,0,1-1.32-1.72l-.89-1.53L865.36,85,862,88.4v16.93l3.66.06,3.66,0,.47.47.47.47,0,9.78,0,9.79,1,.36a12.57,12.57,0,0,1-1,23.88,15.06,15.06,0,0,1-6.81,0,12.61,12.61,0,0,1-6-20.48l.74-.85H844.58l.73.85a12.57,12.57,0,0,1-3.59,19.49,10.88,10.88,0,0,1-5.81,1.38,9.75,9.75,0,0,1-3.41-.39,12.6,12.6,0,0,1-6-20.48l.73-.85H813.57l.73.85a12.6,12.6,0,0,1-5.91,20.45,16.14,16.14,0,0,1-5.57.35Zm5-3.73a8.68,8.68,0,0,0,3.54-2.26,9.12,9.12,0,1,0-12.93,0,9.36,9.36,0,0,0,4.93,2.64,13.63,13.63,0,0,0,4.46-.38Zm-4.53-3.2a5.74,5.74,0,1,1,6.7-8.14,5.73,5.73,0,0,1-3.57,8.15,5.07,5.07,0,0,1-3.13,0Zm2.75-3.47a2.35,2.35,0,1,0-3.19-.89,2.59,2.59,0,0,0,2,1.23,2.55,2.55,0,0,0,1.15-.34Zm32.79,6.67a8.75,8.75,0,0,0,3.54-2.26,9.12,9.12,0,1,0-12.93,0,9.32,9.32,0,0,0,4.93,2.64,13.63,13.63,0,0,0,4.46-.38Zm-4.53-3.2a5.74,5.74,0,1,1,6.7-8.14,5.73,5.73,0,0,1-3.57,8.15,5.07,5.07,0,0,1-3.13,0Zm2.75-3.47a2.35,2.35,0,1,0-3.2-.89,2.62,2.62,0,0,0,2,1.23,2.55,2.55,0,0,0,1.15-.34Zm32.79,6.67a8.75,8.75,0,0,0,3.54-2.26,9.12,9.12,0,1,0-12.93,0,9.33,9.33,0,0,0,4.92,2.64A13.67,13.67,0,0,0,869.85,146.78Zm-4.53-3.2a5.74,5.74,0,1,1,6.7-8.14,5.73,5.73,0,0,1-3.57,8.15,5.07,5.07,0,0,1-3.13,0Zm2.75-3.47a2.35,2.35,0,1,0-3.2-.89,2.25,2.25,0,0,0,3.2.89Zm-1.15-23v-8.35h-62v16.7h62Zm-57.37,4.22c-.79-.38-.93-1.07-.87-4.48l.05-3.14.47-.47a1.6,1.6,0,0,1,2.3,0l.47.47,0,3.14c.05,2.62,0,3.24-.22,3.72a1.62,1.62,0,0,1-2.25.76Zm7.16,0c-.8-.38-.93-1.07-.87-4.48l0-3.14.47-.47a1.6,1.6,0,0,1,2.3,0l.47.47,0,3.14c0,2.62,0,3.24-.22,3.72a1.62,1.62,0,0,1-2.25.76Zm7.15,0c-.79-.38-.92-1.07-.87-4.48l.06-3.14.46-.47a1.6,1.6,0,0,1,2.3,0l.47.47.06,3.14c0,2.62,0,3.24-.23,3.72a1.62,1.62,0,0,1-2.25.76Zm11.43-5.4a2,2,0,0,1-1.08-1.57,1.79,1.79,0,0,1,.49-1,1.59,1.59,0,0,1,2.82,1.06,1.67,1.67,0,0,1-2.23,1.55Zm6.82,0a2,2,0,0,1-1.09-1.56,1.75,1.75,0,0,1,.5-1l.49-.56,8.92,0c4.9,0,9.1,0,9.31,0a2,2,0,0,1,.81.55,1.65,1.65,0,0,1-.55,2.59c-.45.23-17.83.25-18.39,0Zm-21.76-15.31-2.41-4.74L816.53,97a17.37,17.37,0,0,1-4.39,2.65l-.85.35,0,2.67,0,2.67h11.56ZM809,97.16a14.6,14.6,0,0,0,10.27-10.29,16.94,16.94,0,0,0,0-7.16A19,19,0,0,0,817,74.87l-.34-.42-10,10c-8.11,8.11-10,10.08-9.84,10.27a10.54,10.54,0,0,0,1.46,1,15.79,15.79,0,0,0,5.17,1.78,17.4,17.4,0,0,0,5.58-.35ZM804.3,82l2.39-2.38h-5V82a11.31,11.31,0,0,0,.13,2.39A31.73,31.73,0,0,0,804.3,82Zm45.28-1.35.56-.49V67.84l-.56-.49-.56-.5h-9.61c-7.1,0-9.74.05-10.07.2-.9.41-.93.65-.92,7s0,6.42.86,6.88c.33.18,2.38.23,10.08.23H849Zm-11.83-1.11a5.32,5.32,0,0,1-2.66-1.69,4.81,4.81,0,0,1-1.42-2.8,5.54,5.54,0,0,1,1.78-5.27,4.79,4.79,0,0,1,2.78-1.42,5.73,5.73,0,0,1,2.5,11.17,5.13,5.13,0,0,1-3,0ZM840.53,76a2.34,2.34,0,1,0-3.26-3.15A2.35,2.35,0,0,0,840.53,76Zm1.68,20.29a1.64,1.64,0,1,1,2-.86,2.15,2.15,0,0,1-.45.64,2.1,2.1,0,0,1-1.53.22Z"/></g><path class="cls-2" d="M495.65,110.22q1.73,4.09,3.39,8.25,1.65-4.27,3.44-8.43c1.19-2.77,2.45-5.42,3.8-8L557.08,7a13.58,13.58,0,0,1,2-2.84,6,6,0,0,1,2.26-1.55A10.21,10.21,0,0,1,564.09,2c1-.08,2.25-.12,3.68-.12h24.09V173.54H563.73V62.68q0-3.09.18-6.77c.12-2.45.3-4.95.53-7.48l-51.87,97.34a13.68,13.68,0,0,1-4.63,5.16,12,12,0,0,1-6.65,1.84H496.9a12,12,0,0,1-6.65-1.84,13.68,13.68,0,0,1-4.63-5.16L433,48.08q.46,3.91.65,7.65t.18,7V173.54H405.74V1.9h24.09c1.43,0,2.65,0,3.68.12a10.21,10.21,0,0,1,2.79.59,6.66,6.66,0,0,1,2.32,1.55,12,12,0,0,1,2,2.84l51.28,95.32Q493.93,106.13,495.65,110.22Z"/><path class="cls-2" d="M718.52,33.12a8.78,8.78,0,0,1-3,3.68,7.62,7.62,0,0,1-4.09,1.07A10.48,10.48,0,0,1,706.05,36c-2-1.23-4.31-2.59-7-4.1a57,57,0,0,0-9.44-4.09A39.55,39.55,0,0,0,676.85,26a37.43,37.43,0,0,0-11.57,1.6A24.51,24.51,0,0,0,657,32.05a17.68,17.68,0,0,0-5,6.83,22.36,22.36,0,0,0-1.67,8.72,15.14,15.14,0,0,0,3.39,10.09,28.2,28.2,0,0,0,9,6.89,83.7,83.7,0,0,0,12.7,5.1q7.13,2.25,14.54,4.81a140.66,140.66,0,0,1,14.54,5.93A50.56,50.56,0,0,1,717.09,89a38.73,38.73,0,0,1,9,12.64q3.38,7.49,3.38,18.16a59.14,59.14,0,0,1-4,21.78,50.22,50.22,0,0,1-11.63,17.69,54.72,54.72,0,0,1-18.7,11.87,68.8,68.8,0,0,1-25.28,4.33,81.35,81.35,0,0,1-16.14-1.6,84.94,84.94,0,0,1-15.26-4.57,79.84,79.84,0,0,1-13.65-7.12,67.28,67.28,0,0,1-11.33-9.26l9.25-15.31a11.71,11.71,0,0,1,3.15-2.79,7.7,7.7,0,0,1,4.09-1.13,11.32,11.32,0,0,1,6.41,2.43q3.45,2.44,8.14,5.41a62.41,62.41,0,0,0,11,5.4,42.68,42.68,0,0,0,15.25,2.43q13.65,0,21.13-6.47t7.48-18.58q0-6.77-3.39-11a27.24,27.24,0,0,0-9-7.18,66.44,66.44,0,0,0-12.7-4.92q-7.12-2-14.48-4.4a124.53,124.53,0,0,1-14.48-5.69,47.08,47.08,0,0,1-12.71-8.67,39.47,39.47,0,0,1-9-13.35q-3.37-8-3.38-19.77A47.26,47.26,0,0,1,635,15.19a54,54,0,0,1,17.63-11A64.12,64.12,0,0,1,676.5,0a80,80,0,0,1,28,4.75A63.19,63.19,0,0,1,726.35,18Z"/><path class="cls-2" d="M785.82,147.19h68.73v26.35H762.49a8.59,8.59,0,0,1-8.6-8.59V1.9h31.93Z"/></g><path class="cls-2" d="M25.5,377.8H0V268.53H25.5Z"/><path class="cls-2" d="M45.75,377.8V300h14.4a6.44,6.44,0,0,1,3.64,1,5.24,5.24,0,0,1,2.06,2.93l1.27,4.2a42.44,42.44,0,0,1,4-3.71A25.35,25.35,0,0,1,81,299.54a25.48,25.48,0,0,1,6.19-.71,18.21,18.21,0,0,1,11.66,3.64,22.58,22.58,0,0,1,7,9.71,22.91,22.91,0,0,1,4.77-6.15,25.57,25.57,0,0,1,6.07-4.13,29.66,29.66,0,0,1,6.9-2.32,35.82,35.82,0,0,1,7.24-.75,32.78,32.78,0,0,1,11.85,2,22.51,22.51,0,0,1,8.66,5.77,25,25,0,0,1,5.29,9.3,40.19,40.19,0,0,1,1.8,12.49V377.8H135.15V328.38q0-12.08-10.35-12.08a10.63,10.63,0,0,0-7.84,3.12q-3.1,3.1-3.11,9V377.8H90.6V328.38q0-6.67-2.63-9.38t-7.72-2.7a13,13,0,0,0-6,1.43A21.56,21.56,0,0,0,69,321.55V377.8Z"/><path class="cls-2" d="M228.6,377.8a10.89,10.89,0,0,1-5-.9,6.81,6.81,0,0,1-2.81-3.75l-1.65-4.27q-2.93,2.47-5.63,4.35a36.23,36.23,0,0,1-5.58,3.19,28.29,28.29,0,0,1-6.15,1.95,38.35,38.35,0,0,1-7.24.63,31.61,31.61,0,0,1-9.68-1.39,20.19,20.19,0,0,1-7.39-4.1,18,18,0,0,1-4.68-6.73,24.39,24.39,0,0,1-1.65-9.3,19.56,19.56,0,0,1,2.1-8.5,21,21,0,0,1,7.27-7.94,46.35,46.35,0,0,1,13.95-6q8.78-2.4,22.13-2.41v-3.33q0-6.88-2.81-9.95c-1.88-2-4.54-3.07-8-3.07a21.19,21.19,0,0,0-6.75.9,30.16,30.16,0,0,0-4.69,2c-1.38.75-2.71,1.42-4,2a11,11,0,0,1-4.65.9,7,7,0,0,1-4.09-1.16A8.45,8.45,0,0,1,179,318.1l-4.2-7.27a47.2,47.2,0,0,1,15.63-9.26,54.76,54.76,0,0,1,18.42-3,33.58,33.58,0,0,1,12.71,2.29,27.44,27.44,0,0,1,9.6,6.37,28,28,0,0,1,6,9.71,34.91,34.91,0,0,1,2.1,12.3v48.6Zm-26.7-14.17a18.42,18.42,0,0,0,7.87-1.58,23.82,23.82,0,0,0,6.83-5.1V346.3a60.16,60.16,0,0,0-11.48.91,27.76,27.76,0,0,0-7.12,2.27,8.7,8.7,0,0,0-3.64,3.1,7.44,7.44,0,0,0-1,3.79q0,4,2.17,5.63T201.9,363.63Z"/><path class="cls-2" d="M283.2,298.68a43.5,43.5,0,0,1,9.33,1,37.51,37.51,0,0,1,8.14,2.78h23.48v8.47a4.27,4.27,0,0,1-1.09,3.08,7.46,7.46,0,0,1-3.71,1.72l-5.7,1.28a23.31,23.31,0,0,1,1.05,7,22.33,22.33,0,0,1-2.44,10.5,23.87,23.87,0,0,1-6.68,7.92,31.06,31.06,0,0,1-10,5,42,42,0,0,1-12.37,1.76,49.89,49.89,0,0,1-6.9-.45q-2.55,1.51-2.55,3.49a2.94,2.94,0,0,0,2.06,2.84,19.32,19.32,0,0,0,5.44,1.21,76.79,76.79,0,0,0,7.72.34q4.35,0,8.85.41a68.52,68.52,0,0,1,8.85,1.4,23.72,23.72,0,0,1,7.73,3.15,16.4,16.4,0,0,1,5.43,5.84,18.65,18.65,0,0,1,2.07,9.29,22.69,22.69,0,0,1-2.55,10.3,26.94,26.94,0,0,1-7.5,9,39.31,39.31,0,0,1-12.15,6.28,52.73,52.73,0,0,1-16.5,2.37,63.28,63.28,0,0,1-15.79-1.73,38.11,38.11,0,0,1-11-4.54,19.1,19.1,0,0,1-6.48-6.49,15.27,15.27,0,0,1-2.1-7.66,12.74,12.74,0,0,1,3.15-8.75,20.87,20.87,0,0,1,8.62-5.59,13.15,13.15,0,0,1-4.2-4.42,13.37,13.37,0,0,1-1.57-6.82,11.87,11.87,0,0,1,.6-3.63,13.35,13.35,0,0,1,1.87-3.71,18.74,18.74,0,0,1,3.23-3.44,21.1,21.1,0,0,1,4.65-2.92,25.47,25.47,0,0,1-9.57-8.55,23.72,23.72,0,0,1-1-22.91,23.67,23.67,0,0,1,6.79-7.95,31.88,31.88,0,0,1,10.16-5A44,44,0,0,1,283.2,298.68Zm17.25,81.8a4.11,4.11,0,0,0-1.17-3.06,8.13,8.13,0,0,0-3.15-1.84,21.5,21.5,0,0,0-4.65-1,48.81,48.81,0,0,0-5.73-.31h-6.38a33.06,33.06,0,0,1-6.52-.64,15.55,15.55,0,0,0-3.57,3.35,6.79,6.79,0,0,0-1.38,4.17,6.31,6.31,0,0,0,.71,3,5.84,5.84,0,0,0,2.51,2.33A16.81,16.81,0,0,0,276,388a42.88,42.88,0,0,0,7.69.56,45.52,45.52,0,0,0,8.25-.61,17.4,17.4,0,0,0,5.13-1.68,6.27,6.27,0,0,0,2.67-2.57A7.3,7.3,0,0,0,300.45,380.48ZM283.2,334.83c3.85,0,6.63-1,8.36-2.89a10.77,10.77,0,0,0,2.59-7.46,10.32,10.32,0,0,0-2.59-7.43c-1.73-1.8-4.51-2.7-8.36-2.7s-6.64.9-8.37,2.7a10.32,10.32,0,0,0-2.58,7.43,12.85,12.85,0,0,0,.63,4.12,8.71,8.71,0,0,0,2,3.27,9.33,9.33,0,0,0,3.41,2.17A13.68,13.68,0,0,0,283.2,334.83Z"/><path class="cls-2" d="M367.49,298.83a40,40,0,0,1,14.14,2.4,30.74,30.74,0,0,1,11,7,32,32,0,0,1,7.2,11.22,41.19,41.19,0,0,1,2.58,15,33,33,0,0,1-.22,4.28,6.92,6.92,0,0,1-.82,2.62,3.18,3.18,0,0,1-1.62,1.35,7.54,7.54,0,0,1-2.59.38H352.34q1.13,9.75,5.93,14.14t12.38,4.38a22.17,22.17,0,0,0,7-1,34.92,34.92,0,0,0,5.21-2.18l4.2-2.17a8.73,8.73,0,0,1,4-1,4.81,4.81,0,0,1,4.2,2l6.75,8.32a34.61,34.61,0,0,1-7.76,6.72,40.6,40.6,0,0,1-8.55,4.05,46.28,46.28,0,0,1-8.77,2,65.09,65.09,0,0,1-8.37.56,43.49,43.49,0,0,1-15.33-2.66,35.19,35.19,0,0,1-12.53-7.91,37.32,37.32,0,0,1-8.47-13.05,48.66,48.66,0,0,1-3.12-18.15,41,41,0,0,1,2.67-14.78,35.94,35.94,0,0,1,19.72-20.55A39.86,39.86,0,0,1,367.49,298.83Zm.45,16.05q-6.68,0-10.42,3.79t-4.95,10.91h29a20.31,20.31,0,0,0-.71-5.4,13.13,13.13,0,0,0-2.32-4.69,12.06,12.06,0,0,0-4.24-3.34A14.52,14.52,0,0,0,367.94,314.88Z"/><path class="cls-2" d="M543.89,323.13A57.36,57.36,0,0,1,539.81,345a51.26,51.26,0,0,1-11.52,17.33,52.38,52.38,0,0,1-17.88,11.4,63.46,63.46,0,0,1-23.22,4.08H444.74V268.53h42.45a62.84,62.84,0,0,1,23.22,4.12,53,53,0,0,1,17.88,11.4,50.9,50.9,0,0,1,11.52,17.29A57.22,57.22,0,0,1,543.89,323.13Zm-25.95,0a47.64,47.64,0,0,0-2.1-14.63,31.34,31.34,0,0,0-6-11.06,26.26,26.26,0,0,0-9.64-7,32.66,32.66,0,0,0-13-2.44H470.24V358.3h16.95a32.83,32.83,0,0,0,13-2.43,26.28,26.28,0,0,0,9.64-7,31.26,31.26,0,0,0,6-11.06A47.87,47.87,0,0,0,517.94,323.13Z"/><path class="cls-2" d="M634,300h18.6a7.88,7.88,0,0,1,4.27,1.12,4.5,4.5,0,0,1,2.18,2.93l7.8,34.87q.9,4,1.65,7.73t1.35,7.42q1.05-3.68,2.21-7.38t2.29-7.77L684.14,304a4.94,4.94,0,0,1,2.17-2.88,6.93,6.93,0,0,1,4-1.17h10.35a7.51,7.51,0,0,1,4.24,1.17,4.93,4.93,0,0,1,2.21,2.88l9.3,34.95q1.05,4,2.14,7.73t2.06,7.57c.4-2.5.89-5,1.46-7.46s1.19-5.09,1.84-7.84l8.25-34.87a4.5,4.5,0,0,1,2.14-2.93,7.27,7.27,0,0,1,4-1.12H756L731.84,377.8h-18.9a3.78,3.78,0,0,1-2.55-.9,6.06,6.06,0,0,1-1.65-3l-11.1-38.77q-.75-2.62-1.43-5.18c-.45-1.69-.85-3.4-1.2-5.1-.35,1.75-.73,3.49-1.16,5.22s-.91,3.46-1.46,5.21L681.14,373.9q-1.12,3.9-4.95,3.9h-18Z"/><path class="cls-2" d="M765,377.8V300h14.4a6.38,6.38,0,0,1,3.63,1,5.21,5.21,0,0,1,2.07,2.93l1.35,4.5a56.49,56.49,0,0,1,4.65-3.9,27.37,27.37,0,0,1,5.14-3,30.9,30.9,0,0,1,5.92-1.95,32.1,32.1,0,0,1,6.94-.71A27.34,27.34,0,0,1,820.38,301a23.56,23.56,0,0,1,8.28,6.15,26.57,26.57,0,0,1,5.1,9.38,38.83,38.83,0,0,1,1.73,11.81V377.8H812.24V328.38q0-5.7-2.63-8.89c-1.75-2.12-4.32-3.19-7.72-3.19a16.18,16.18,0,0,0-7.2,1.65,28,28,0,0,0-6.45,4.43V377.8Z"/><path class="cls-2" d="M876,265.53V377.8H852.74V265.53Z"/><path class="cls-2" d="M929.38,298.83a45.16,45.16,0,0,1,16.13,2.77A35.42,35.42,0,0,1,958,309.55a35.94,35.94,0,0,1,8.1,12.57A45.39,45.39,0,0,1,969,338.73a46.22,46.22,0,0,1-2.88,16.76,36.22,36.22,0,0,1-8.1,12.68,35.58,35.58,0,0,1-12.49,8,48,48,0,0,1-32.36,0,36.13,36.13,0,0,1-12.6-8,35.57,35.57,0,0,1-8.18-12.68,46.21,46.21,0,0,1-2.89-16.76,45.39,45.39,0,0,1,2.89-16.61,35.29,35.29,0,0,1,8.18-12.57,36,36,0,0,1,12.6-7.95A45.6,45.6,0,0,1,929.38,298.83Zm0,62.92q8,0,11.82-5.66T945,338.88q0-11.55-3.78-17.18t-11.82-5.62q-8.25,0-12.07,5.62t-3.83,17.18q0,11.55,3.83,17.21T929.38,361.75Z"/><path class="cls-2" d="M1035.43,377.8a10.92,10.92,0,0,1-5-.9,6.86,6.86,0,0,1-2.81-3.75l-1.65-4.27q-2.93,2.47-5.62,4.35a36.33,36.33,0,0,1-5.59,3.19,28.29,28.29,0,0,1-6.15,1.95,38.35,38.35,0,0,1-7.24.63,31.55,31.55,0,0,1-9.67-1.39,20.11,20.11,0,0,1-7.39-4.1,18,18,0,0,1-4.69-6.73,24.39,24.39,0,0,1-1.65-9.3,19.56,19.56,0,0,1,2.1-8.5,21,21,0,0,1,7.28-7.94,46.35,46.35,0,0,1,13.95-6q8.78-2.4,22.12-2.41v-3.33q0-6.88-2.81-9.95c-1.88-2-4.54-3.07-8-3.07a21.19,21.19,0,0,0-6.75.9,30.59,30.59,0,0,0-4.69,2q-2.06,1.13-4,2a11,11,0,0,1-4.65.9,7,7,0,0,1-4.09-1.16,8.55,8.55,0,0,1-2.66-2.89l-4.2-7.27a47.15,47.15,0,0,1,15.64-9.26,54.66,54.66,0,0,1,18.41-3,33.55,33.55,0,0,1,12.71,2.29,27.26,27.26,0,0,1,9.6,6.37,27.82,27.82,0,0,1,6,9.71,34.91,34.91,0,0,1,2.1,12.3v48.6Zm-26.7-14.17a18.47,18.47,0,0,0,7.88-1.58,23.79,23.79,0,0,0,6.82-5.1V346.3a60,60,0,0,0-11.47.91,27.85,27.85,0,0,0-7.13,2.27,8.7,8.7,0,0,0-3.64,3.1,7.44,7.44,0,0,0-1,3.79q0,4,2.18,5.63T1008.73,363.63Z"/><path class="cls-2" d="M1117.18,377.8a6.44,6.44,0,0,1-3.64-1,5.24,5.24,0,0,1-2.06-2.93l-1.8-5.92a45.64,45.64,0,0,1-4.88,4.5,30.75,30.75,0,0,1-5.51,3.49,29.64,29.64,0,0,1-6.37,2.25,33.18,33.18,0,0,1-7.39.78,24,24,0,0,1-11.25-2.7,25.94,25.94,0,0,1-8.93-7.8,39.25,39.25,0,0,1-5.88-12.48,60.5,60.5,0,0,1-2.14-16.84,52.48,52.48,0,0,1,2.4-16.16,39.43,39.43,0,0,1,6.79-12.9,31.4,31.4,0,0,1,10.53-8.52,29.94,29.94,0,0,1,13.58-3.07,26.12,26.12,0,0,1,10.16,1.76,29.39,29.39,0,0,1,7.54,4.61V265.53h23.25V377.8Zm-23.55-16.65a20.34,20.34,0,0,0,4.61-.48,15.87,15.87,0,0,0,7-3.64,27.8,27.8,0,0,0,3-3.15v-33a15.41,15.41,0,0,0-5.74-4.09,17.86,17.86,0,0,0-6.41-1.16,13.72,13.72,0,0,0-5.93,1.27,12.15,12.15,0,0,0-4.68,4.09,21.7,21.7,0,0,0-3.12,7.31,45.5,45.5,0,0,0-1.12,10.88,50.37,50.37,0,0,0,.9,10.35,21.51,21.51,0,0,0,2.51,6.79,9.81,9.81,0,0,0,3.86,3.71A11.1,11.1,0,0,0,1093.63,361.15Z"/><path class="cls-2" d="M1182.88,298.83a40.08,40.08,0,0,1,14.14,2.4,30.7,30.7,0,0,1,11,7,31.82,31.82,0,0,1,7.2,11.22,41,41,0,0,1,2.59,15,32.78,32.78,0,0,1-.23,4.28,6.74,6.74,0,0,1-.82,2.62,3.15,3.15,0,0,1-1.61,1.35,7.58,7.58,0,0,1-2.59.38h-44.85q1.13,9.75,5.92,14.14T1186,361.6a22.13,22.13,0,0,0,7-1,35.51,35.51,0,0,0,5.22-2.18q2.28-1.2,4.2-2.17a8.7,8.7,0,0,1,4-1,4.81,4.81,0,0,1,4.2,2l6.75,8.32a34.65,34.65,0,0,1-7.77,6.72,40.6,40.6,0,0,1-8.55,4.05,46.1,46.1,0,0,1-8.77,2,64.94,64.94,0,0,1-8.36.56,43.54,43.54,0,0,1-15.34-2.66,35.19,35.19,0,0,1-12.53-7.91,37.32,37.32,0,0,1-8.47-13.05,48.86,48.86,0,0,1-3.11-18.15,41,41,0,0,1,2.66-14.78,35.94,35.94,0,0,1,19.72-20.55A39.91,39.91,0,0,1,1182.88,298.83Zm.45,16.05q-6.67,0-10.43,3.79t-5,10.91h29a20.73,20.73,0,0,0-.71-5.4,13.15,13.15,0,0,0-2.33-4.69,12.06,12.06,0,0,0-4.24-3.34A14.47,14.47,0,0,0,1183.33,314.88Z"/><path class="cls-2" d="M1231.18,377.8V300H1245a11.67,11.67,0,0,1,2.88.3,4.93,4.93,0,0,1,2,.94A3.86,3.86,0,0,1,1251,303a14.71,14.71,0,0,1,.72,2.55l1.27,7.28a38.14,38.14,0,0,1,9.6-10.43,19.51,19.51,0,0,1,11.63-3.82,13.39,13.39,0,0,1,8.55,2.55l-3,17.1a3.32,3.32,0,0,1-1.2,2.21,4,4,0,0,1-2.4.64,15.54,15.54,0,0,1-3-.34,23.66,23.66,0,0,0-4.35-.34q-9.15,0-14.4,9.75v47.7Z"/><path class="cls-2" d="M834.21,147.19h48.65a5.67,5.67,0,0,1,5.67,5.67v20.68a0,0,0,0,1,0,0H834.21a0,0,0,0,1,0,0V147.19A0,0,0,0,1,834.21,147.19Z"/><g id="layer1-2" data-name="layer1"><path id="path1-2" data-name="path1" class="cls-1" d="M577.9,379.78c-3.45-1-6.45-2-6.67-2.12-.81-.6-1.05-1.21-1.69-4.28l-.62-3-1.37-1a39.7,39.7,0,0,1-7.81-7.23c-1.15-1.41-1.26-1.84-.64-2.46.8-.8,1.16-.6,3.19,1.74l.93,1.08h25l.23-.44a3.56,3.56,0,0,1,3-1.81,3.64,3.64,0,0,1,2.83,1.55l.42.69h1a14.91,14.91,0,0,0,7-1.93,20.35,20.35,0,0,0,2.68-2,18.54,18.54,0,0,1,8-4.58c1.07-.29,1.84-.35,5.73-.43l4.5-.1.31-.64a40.6,40.6,0,0,0,2.58-8.33l.11-.61-5.6.07c-5.06.06-5.72.1-6.93.41a15.54,15.54,0,0,0-7.07,4.09,16.81,16.81,0,0,1-5.45,3.42c-3.1,1.16-1.54,1.08-24.33,1.15l-20.52.06.51,1c.42.85.48,1.11.36,1.47a1.19,1.19,0,0,1-1.47.77c-1.26-.44-3.84-7.42-4.65-12.6a52.13,52.13,0,0,1-.08-10.21c.47-3,.72-4,1.09-4.37a1.06,1.06,0,0,1,1.61,0c.43.43.44.65.12,2.13l-.11.53,5.76-.05c5.49-.05,5.8-.07,6.49-.39a4.36,4.36,0,0,0,1.23-7.09c-1.25-1.1-1.18-1.08-6.14-1.14l-4.51-.05-.54,1.23a4.16,4.16,0,0,1-.82,1.37,1.15,1.15,0,0,1-1.75-1c0-.75,2.08-4.89,3.58-7.13a39.07,39.07,0,0,1,24.21-16.5,36.07,36.07,0,0,1,9.56-.86,35.13,35.13,0,0,1,8.65,1.07l1.74.44,1.35-.95c1.57-1.08,2.25-1.4,3-1.4a37.34,37.34,0,0,1,7.14,3.45c.88.74,1,1.24,1.13,3.37l.07,1.93,1.2,1a38.84,38.84,0,0,1,10.13,12.77,22.5,22.5,0,0,0,1.22,2.27,2.8,2.8,0,0,0,.73.22,2.88,2.88,0,0,1,1.91,1.36,46,46,0,0,1,2.12,7.38,3.42,3.42,0,0,1-1.31,2.51l-.78.8-.07,2.65a37.21,37.21,0,0,1-11.6,26.34c-2.52,2.45-3.84,3.43-4.39,3.29a1.12,1.12,0,0,1-1-1.1c0-.64,0-.67,1.36-1.78a38.37,38.37,0,0,0,8-9.12l.45-.77H619a18.38,18.38,0,0,0-4.67.31,15,15,0,0,0-7.09,4,26.73,26.73,0,0,1-2.42,1.95,17.74,17.74,0,0,1-8.34,2.7l-1.71.11-.49.66a3.3,3.3,0,0,1-3.72,1.37,4.77,4.77,0,0,1-2.22-1.8c-.15-.27-.78-.28-11.37-.24l-11.22,0,1.23,1c.67.53,1.84,1.39,2.59,1.91a6.43,6.43,0,0,1,1.49,1.28c.07.19.4,1.69.74,3.32a20.86,20.86,0,0,0,.78,3.15c.1.1,2.92,1,6.27,1.92l6.09,1.75,2.45-2.56,2.44-2.56,2.27-.11a37.56,37.56,0,0,0,14.76-3.77,18.34,18.34,0,0,1,2.36-1,1.19,1.19,0,0,1,1,1.64c-.13.39-.51.64-2.43,1.57a39,39,0,0,1-15.12,4l-1.76.1-2.17,2.25c-2.26,2.33-3,2.84-4,2.82-.31,0-3.39-.84-6.83-1.85Zm14.42-15.5a1,1,0,0,0-.83-1.59,1,1,0,0,0-.65,1.81,1,1,0,0,0,1.48-.22Zm6.41-14a15.1,15.1,0,0,0,6.91-3.79,17.17,17.17,0,0,1,10.09-4.85c.75-.09,3.57-.16,6.28-.16h4.92l.1-1c.06-.54.11-1.31.11-1.7v-.71l-5.91.06c-6.66.07-7.16.14-9.8,1.4a13.7,13.7,0,0,0-4.07,2.84,17.83,17.83,0,0,1-7.53,4.28l-1.21.36-22,0c-12.08,0-22,.08-22,.12s1,3.2,1.08,3.34,9.49.1,21,.07c18.67-.05,21-.08,22-.31Zm.7-6a17.21,17.21,0,0,0,5.38-2.92c3.47-3,5-4,7.43-4.82,2.18-.73,3.88-.89,9.54-.89h5.16l1.14-1.16a4.83,4.83,0,0,0,1.14-1.49,54.77,54.77,0,0,0-1.8-6.14,2.77,2.77,0,0,0-1.1-.38,4.17,4.17,0,0,1-1.18-.37,11.13,11.13,0,0,1-1-2c-.44-1-1.21-2.52-1.71-3.38a26.73,26.73,0,0,0-2.4-3.56,8.47,8.47,0,0,0-.61,1.18,17.46,17.46,0,0,1-11.27,9.38l-1.61.43-7.72.06c-7.44.05-7.73,0-8.1-.26a1.24,1.24,0,0,1,0-1.82c.35-.28.77-.3,7.54-.3,6.36,0,7.33,0,8.62-.3a14.66,14.66,0,0,0,8.65-5.36,16.74,16.74,0,0,0,2.4-4.56l.24-.83-1.79-1.75c-1-1-2.31-2.17-3-2.67a12.07,12.07,0,0,1-1.28-1.11,12.4,12.4,0,0,1-.21-2.37l-.08-2.17-2.88-1.49c-1.59-.82-3-1.48-3.06-1.48A14.35,14.35,0,0,0,604,303a8.58,8.58,0,0,1-2,1.2,20,20,0,0,1-2.23-.47c-1-.27-2.45-.57-3.13-.67l-1.24-.19-1.5,1c-6.21,4.15-17.88,7.74-26.93,8.29-1.76.11-1.83.13-2.45.67a40.82,40.82,0,0,0-4.92,5.92c-.66,1-1.19,1.82-1.19,1.87s1.79.12,4,.15l4,0,1.21.6a6.67,6.67,0,0,1,.89,11.54c-1.63,1.09-1.84,1.12-8.58,1.12-5.56,0-6,0-6.11.28a58.4,58.4,0,0,0,.1,8.68l.22,1.65,22.19,0c20.68-.05,22.26-.07,23.16-.33Zm-18.19-4.43a6.82,6.82,0,0,1-4.43-7.37,7.06,7.06,0,0,1,3.86-5.13c.85-.42,1.07-.45,2.77-.45a5,5,0,0,1,2.78.43,7.23,7.23,0,0,1,3.83,4.81,7,7,0,0,1-3.83,7.49,8.09,8.09,0,0,1-5,.22Zm3.93-2.38a5.42,5.42,0,0,0,2.18-2,4.82,4.82,0,0,0-1-5.12,3.9,3.9,0,0,0-2.84-1.1,4.3,4.3,0,0,0-4.17,3,3.93,3.93,0,0,0,0,2.62,4.4,4.4,0,0,0,5.83,2.68Zm8.89-1.76a.94.94,0,0,1,0-1.44,1.14,1.14,0,0,1,2,.76A1.16,1.16,0,0,1,594.06,335.76Zm32.33-2.06a4.7,4.7,0,0,1-1.75-2.57,8.59,8.59,0,0,1-.33-3.21,1.24,1.24,0,0,1,1.56-.7c.52.18.73.67.85,2a4.74,4.74,0,0,0,1,2.64c.46.62.49.78.23,1.36a1.15,1.15,0,0,1-1.53.5Zm-32.11-1.44a1,1,0,0,1,0-1.63c.39-.39.42-.39,3.43-.39,2.83,0,3.07,0,3.46.33a1.12,1.12,0,0,1,0,1.75c-.39.31-.63.33-3.46.33C594.7,332.65,594.67,332.65,594.28,332.26Zm-19.13-8.1a4.57,4.57,0,0,1-3.12-4.28,4.37,4.37,0,0,1,1.36-3.39,4.62,4.62,0,0,1,7.92,2.89,4.15,4.15,0,0,1-1.4,3.66A4.32,4.32,0,0,1,575.15,324.16Zm2.63-2.43a2.23,2.23,0,0,0-1-4.18,2.13,2.13,0,0,0-2.28,2.25,2.21,2.21,0,0,0,3.33,1.93Zm29.26.07a3.43,3.43,0,1,1,2.55-6.35A3.43,3.43,0,0,1,607,321.8Zm1.51-2.35a.87.87,0,0,0,.59-.92,1,1,0,0,0-1.06-1,1,1,0,0,0-.6,1.75C608,319.69,608.08,319.7,608.55,319.45Zm-17.62-7.54a1.07,1.07,0,0,1,0-1.68,1.45,1.45,0,0,1,.81-.39,1.21,1.21,0,0,1,0,2.41,1.59,1.59,0,0,1-.81-.34Zm2-2.55a1.14,1.14,0,0,1,.87-1.93,1.3,1.3,0,0,1,1.22,1.12,1.44,1.44,0,0,1-.34.7A1.21,1.21,0,0,1,592.92,309.36Zm14.44-.95a10.51,10.51,0,0,1-3.32-1.87c-.57-.49-.68-.67-.68-1.19,0-1.22,1.17-1.53,2.26-.6a8,8,0,0,0,3.55,1.62,2.62,2.62,0,0,1,1.37.51,1.25,1.25,0,0,1-.11,1.51c-.42.42-1.8.42-3.07,0Zm-35.33.77a66.14,66.14,0,0,0,17.9-5.74l1.43-.75-1.75-.05a36.49,36.49,0,0,0-20.8,6.72l-.39.33.8-.1c.45,0,1.71-.24,2.81-.41Zm10.48,67.71a24.11,24.11,0,0,0-7.64-2.07,2.33,2.33,0,0,1-1.24-.41,1.3,1.3,0,0,1,0-1.65c.66-.59,4.09-.16,7.37.94,1.93.64,4.15,1.72,4.29,2.09a1.16,1.16,0,0,1-1.07,1.67,6.57,6.57,0,0,1-1.69-.57Zm2.71-8a1.5,1.5,0,0,1-.33-.7,1.59,1.59,0,0,1,.33-.7,1.16,1.16,0,1,1,0,1.4Z"/></g></g></g></svg>